<?xml version="1.0" encoding="UTF-8" standalone="no"?>
<svg width="60px" height="50px" viewBox="0 0 60 50" version="1.1" xmlns="http://www.w3.org/2000/svg" xmlns:xlink="http://www.w3.org/1999/xlink" xmlns:sketch="http://www.bohemiancoding.com/sketch/ns">
    <!-- Generator: Sketch 3.3.2 (12043) - http://www.bohemiancoding.com/sketch -->
    <title>icons-sketch</title>
    <desc>Created with Sketch.</desc>
    <defs>
        <path id="path-1" d="M3.55632845,6.37853357 C2.89449899,5.71670411 1.82328629,5.71487926 1.15334786,6.38481769 L1.15334786,6.38481769 C0.488047785,7.05011776 0.491908766,8.13264329 1.14706375,8.78779827 L5.12143036,12.7621649 C5.78325982,13.4239943 6.85447252,13.4258192 7.52441095,12.7558808 L7.52441095,12.7558808 C8.18971103,12.0905807 8.18585004,11.0080552 7.53069507,10.3529002 L3.55632845,6.37853357 Z"></path>
    </defs>
    <g id="Page-1" stroke="none" stroke-width="1" fill="none" fill-rule="evenodd" sketch:type="MSPage">
        <g id="add-people-button-copy" sketch:type="MSLayerGroup">
            <g id="group" sketch:type="MSShapeGroup">
                <rect id="Background" fill="#50E3C2" x="0" y="0" width="60" height="50" rx="7"></rect>
                <path d="M7.24137931,39.2395042 C7.24137931,37.7571134 10.2928819,36.27671 12.6069852,33.9444109 C14.4671633,32.0696061 15.3704966,29.2800397 17.4744603,28.2608695 C20.7749921,26.662076 22.4292682,28.2608695 26.8965517,28.2608695 C28.1008297,28.2608695 33.3632426,26.840877 36.5135765,28.2608695 C38.7895373,29.286744 40.2005794,32.2248652 41.8506293,33.9444109 C44.3411988,36.5398765 46.5517241,38.0286471 46.5517241,39.2395042 L46.5517241,39.2395042 C46.5517241,40.9796857 44.7604917,42.3903816 42.5478533,42.3903816 L11.2452501,42.3903817 C9.03397332,42.3903818 7.24137931,40.594046 7.24137931,39.2395042 L7.24137931,39.2395042 Z" id="shape" stroke="#FFFFFF" stroke-width="4"></path>
                <path d="M26.8965517,22.6902174 C32.0172414,22.6902174 36.2068966,18.3491848 36.2068966,13.0434783 C36.2068966,7.73777174 32.0172414,3.39673913 26.8965517,3.39673913 C21.7758621,3.39673913 17.5862069,7.73777174 17.5862069,13.0434783 C17.5862069,18.3491848 21.7758621,22.6902174 26.8965517,22.6902174 L26.8965517,22.6902174 Z" id="shape" stroke="#FFFFFF" stroke-width="3"></path>
            </g>
        </g>
        <g id="check-mark-copy-2" sketch:type="MSLayerGroup" transform="translate(39.000000, 5.000000)">
            <g id="shape">
                <use fill="#FFFFFF" fill-rule="evenodd" sketch:type="MSShapeGroup" xlink:href="#path-1"></use>
                <use fill="none" xlink:href="#path-1"></use>
            </g>
            <path d="M16.9714525,3.47212893 C17.6380743,2.80550716 17.6437841,1.73040951 16.9738456,1.06047108 L16.9738456,1.06047108 C16.3085456,0.395171008 15.2316753,0.393376755 14.5621878,1.06286423 L3.97241666,11.6526354 L5.17704901,12.8572677 C5.84234909,13.5225678 6.91921939,13.524362 7.58870686,12.8548746 L16.9714525,3.47212893 Z" id="shape" fill="#FFFFFF" sketch:type="MSShapeGroup"></path>
        </g>
    </g>
</svg>